<svg width="21" height="14" viewBox="0 0 21 14" fill="none" xmlns="http://www.w3.org/2000/svg">
<path fill-rule="evenodd" clip-rule="evenodd" d="M21.0013 6.75095C21.0013 6.94986 20.9223 7.14063 20.7817 7.28128C20.641 7.42193 20.4503 7.50095 20.2513 7.50095L2.56184 7.50095L7.28234 12.2199C7.42317 12.3608 7.50229 12.5518 7.50229 12.7509C7.50229 12.9501 7.42317 13.1411 7.28234 13.2819C7.14151 13.4228 6.95051 13.5019 6.75134 13.5019C6.55218 13.5019 6.36117 13.4228 6.22034 13.2819L0.220343 7.28195C0.150497 7.21228 0.0950832 7.12951 0.0572739 7.0384C0.0194645 6.94728 1.90735e-06 6.8496 1.90735e-06 6.75095C1.90735e-06 6.6523 0.0194645 6.55462 0.0572739 6.4635C0.0950832 6.37238 0.150497 6.28962 0.220343 6.21995L6.22034 0.219947C6.36117 0.0791173 6.55218 -4.69245e-09 6.75134 0C6.95051 4.69246e-09 7.14151 0.0791173 7.28234 0.219947C7.42317 0.360777 7.50229 0.551784 7.50229 0.750947C7.50229 0.950111 7.42317 1.14112 7.28234 1.28195L2.56184 6.00095L20.2513 6.00095C20.4503 6.00095 20.641 6.07997 20.7817 6.22062C20.9223 6.36127 21.0013 6.55203 21.0013 6.75095Z" fill="white"/>
</svg>
